<svg xmlns="http://www.w3.org/2000/svg" xmlns:xlink="http://www.w3.org/1999/xlink" xml:space="preserve" width="500" height="500" viewBox="0 0 132.292 132.292"><defs><radialGradient xlink:href="#a" id="b" cx="67.966" cy="63.747" r="43.202" fx="67.966" fy="63.747" gradientTransform="translate(-37.915 -31.456)scale(1.53109)" gradientUnits="userSpaceOnUse"/><linearGradient id="a"><stop offset="0" style="stop-color:#f9fabc;stop-opacity:1"/><stop offset=".494" style="stop-color:#f9fabc;stop-opacity:1"/><stop offset=".6" style="stop-color:#f7f7ac;stop-opacity:1"/><stop offset=".867" style="stop-color:#f6f699;stop-opacity:1"/><stop offset="1" style="stop-color:#f6f687;stop-opacity:1"/></linearGradient></defs><circle cx="66.146" cy="66.146" r="66.146" style="fill:url(#b);stroke-width:.405099"/><path d="m62.937 113.9 1.312-2.745 4.618-32.544-.706-6.178q-1.158.27-4.94.785-3.783.514-8.403 1.103-4.53.445-8.573.898-3.952.311-5.626.457l-5.35 13.687-5.57 2.272 1.395-14.96-.754-3.24-7.861-12.806 6-.421 10.847 9.914q1.886-.804 5.712-2.183 3.825-1.38 8.114-2.866a264 264 0 0 1 7.652-2.757q3.505-1.183 4.663-1.452L63.37 55.01 44.85 27.854l-2.39-1.882 7.427.466a4.2 4.2 0 0 1 1.122.104q.516.124.66.213.257.061 2.559 2.087L86.114 56.3q3.587-.835 7.975-1.37a88 88 0 0 1 8.626-.667q4.211-.248 7 .2 2.875.306 3.145 1.463.27 1.156-2.15 2.818-2.417 1.66-6.278 3.414a135 135 0 0 1-8.177 3.123q-4.2 1.345-7.555 2.125L71.42 107.9a4.73 4.73 0 0 1-2.026 2.301z" aria-label="✈" style="font-size:118.79px;font-family:&quot;Source Sans Pro&quot;;-inkscape-font-specification:&quot;Source Sans Pro&quot;;fill:#34378b;stroke-width:1.23739"/></svg>