<svg xmlns="http://www.w3.org/2000/svg" viewBox="-55 -45 500.00 500.00">
  <circle fill="#702459" cx="195" cy="205" r="250"></circle>
  <path fill="#ed64a6" d="   M 41.51 237.04   C 45.66 224.62 61.76 210.12 73.12 201.35   Q 78.65 197.08 82.30 193.50   C 121.48 154.99 158.06 124.79 197.55 92.01   Q 199.70 90.22 201.11 87.75   C 205.32 80.33 208.90 73.94 214.90 67.74   C 229.02 53.14 258.08 45.02 276.95 53.75   Q 295.98 62.55 300.01 84.10   A 0.95 0.95 0.0 0 0 301.27 84.81   C 341.67 70.11 368.58 110.21 350.29 145.03   A 0.74 0.74 0.0 0 0 350.67 146.06   C 380.46 158.21 382.49 189.71 359.27 209.56   A 0.87 0.86 63.0 0 0 359.00 210.41   Q 360.26 215.64 360.41 220.00   Q 361.22 243.50 360.25 268.56   C 359.55 286.49 351.22 301.02 334.80 309.01   C 323.20 314.67 311.75 320.55 300.47 323.15   C 286.17 326.45 272.26 330.60 257.73 333.03   C 237.23 336.46 216.87 339.99 196.18 342.15   C 187.18 343.09 176.62 345.01 168.57 345.37   C 145.86 346.41 124.17 350.10 100.49 349.28   Q 94.31 349.06 86.60 347.91   C 72.56 345.80 60.91 343.70 47.89 338.92   Q 39.45 335.83 37.68 334.90   C 34.74 333.36 27.32 328.50 26.60 324.73   Q 25.26 317.62 25.02 310.43   C 24.74 301.93 26.86 294.21 29.81 286.32   A 0.51 0.50 -57.9 0 1 30.63 286.13   C 47.06 301.57 75.35 305.56 96.81 305.48   C 120.57 305.40 144.90 304.38 168.34 300.25   C 207.76 293.30 247.81 287.61 285.31 275.82   Q 306.27 269.23 327.25 256.87   Q 333.11 253.41 335.14 250.34   C 342.20 239.69 333.16 224.49 320.27 226.46   Q 317.29 226.91 311.07 230.48   C 289.59 242.82 270.54 248.40 243.21 255.13   Q 233.75 257.46 223.65 259.24   Q 193.67 264.53 163.66 269.65   C 139.16 273.84 112.89 274.95 89.24 274.50   C 79.71 274.32 70.36 271.57 60.60 269.65   C 44.40 266.48 36.26 252.72 41.51 237.04   Z   M 176.11 222.07   C 188.05 207.52 200.32 203.83 217.75 200.22   C 225.72 198.57 231.77 195.08 232.71 186.76   C 233.94 175.97 225.26 167.81 214.56 169.36   C 190.03 172.90 168.83 182.26 152.96 201.21   C 138.57 218.39 162.93 238.12 176.11 222.07   Z"></path>
</svg>
