<?xml version="1.0" encoding="UTF-8" standalone="no"?>
<svg
   viewBox="0 0 36 36"
   version="1.1"
   id="svg930"
   sodipodi:docname="1f3d5.svg"
   inkscape:version="1.1.2 (0a00cf5339, 2022-02-04)"
   xmlns:inkscape="http://www.inkscape.org/namespaces/inkscape"
   xmlns:sodipodi="http://sodipodi.sourceforge.net/DTD/sodipodi-0.dtd"
   xmlns="http://www.w3.org/2000/svg"
   xmlns:svg="http://www.w3.org/2000/svg">
  <defs
     id="defs934" />
  <sodipodi:namedview
     id="namedview932"
     pagecolor="#ffffff"
     bordercolor="#666666"
     borderopacity="1.0"
     inkscape:pageshadow="2"
     inkscape:pageopacity="0.0"
     inkscape:pagecheckerboard="0"
     showgrid="false"
     inkscape:snap-global="false"
     inkscape:zoom="15.063719"
     inkscape:cx="25.558097"
     inkscape:cy="27.649214"
     inkscape:current-layer="svg930" />
  <path
     fill="#78B159"
     d="M18 25.18C3.438 25.18 0 29.844 0 32s1.791 4 4 4h28c2.209 0 4-1.851 4-4s-3.438-6.82-18-6.82z"
     id="path896" />
  <path
     fill="#662113"
     d="M28.804 28.15c0 1.531-1.242 2.08-2.773 2.08-1.531 0-2.773-.548-2.773-2.08l.693-6.239c0-1.531.548-1.387 2.08-1.387 1.531 0 2.08-.145 2.08 1.387l.693 6.239z"
     id="path898" />
  <path
     fill="#5C913B"
     d="M34.868 19.717c-4.59-4.135-6.449-10.056-8.837-10.056s-4.247 5.921-8.836 10.056c-1.929 1.738-1.01 2.743 1.634 2.542 2.357-.179 4.561-.741 7.202-.741s4.846.563 7.202.741c2.644.201 3.563-.805 1.635-2.542z"
     id="path900" />
  <path
     fill="#3E721D"
     d="M33.377 18.078c-3.527-3.401-5.509-8.273-7.346-8.273-1.836 0-3.818 4.872-7.345 8.273-2.803 2.703 3.673 3.309 7.345 0 3.671 3.309 10.148 2.703 7.346 0z"
     id="path902" />
  <path
     fill="#5C913B"
     d="M33.377 15.323c-3.527-3.178-5.509-7.729-7.346-7.729-1.836 0-3.818 4.551-7.345 7.729-2.803 2.525 3.673 3.091 7.345 0 3.671 3.091 10.148 2.524 7.346 0z"
     id="path904" />
  <path
     fill="#3E721D"
     d="M31.766 13.066c-2.753-2.481-4.301-6.034-5.735-6.034-1.433 0-2.981 3.553-5.735 6.034-2.188 1.971 2.867 2.414 5.735 0 2.867 2.413 7.923 1.971 5.735 0z"
     id="path906" />
  <path
     fill="#5C913B"
     d="M31.766 11.001c-2.753-2.481-4.301-6.034-5.735-6.034-1.433 0-2.981 3.553-5.735 6.034-2.188 1.971 2.867 2.414 5.735 0 2.867 2.414 7.923 1.972 5.735 0z"
     id="path908" />
  <path
     fill="#3E721D"
     d="M30.659 9.168c-2.222-2.002-3.471-4.869-4.628-4.869s-2.406 2.867-4.628 4.869c-1.766 1.591 2.314 1.948 4.628 0 2.314 1.948 6.395 1.591 4.628 0z"
     id="path910" />
  <path
     fill="#5C913B"
     d="M30.659 7.614c-2.222-2.002-3.471-4.869-4.628-4.869s-2.406 2.867-4.628 4.869c-1.766 1.591 2.314 1.948 4.628 0 2.314 1.948 6.395 1.591 4.628 0z"
     id="path912" />
  <path
     fill="#3E721D"
     d="M29.553 5.326c-1.69-1.523-2.641-3.705-3.522-3.705-.88 0-1.831 2.182-3.522 3.705-1.344 1.211 1.761 1.482 3.522 0 1.761 1.483 4.866 1.211 3.522 0z"
     id="path914" />
  <path
     fill="#5C913B"
     d="M29.553 4.29C27.863 2.767 26.912.585 26.031.585c-.88 0-1.831 2.182-3.522 3.705-1.344 1.211 1.761 1.482 3.522 0 1.761 1.482 4.866 1.211 3.522 0z"
     id="path916" />
  <path
     fill="#F4900C"
     d="M15.101 33c-.424 0-.802-.267-.944-.666L9.145 18.301c-.11-.307-.063-.628.125-.896.188-.265.494-.405.82-.405h11.759c.401 0 .764.22.922.589l6.014 14.023c.133.31.101.661-.084.942-.188.282-.502.446-.839.446H15.101z"
     id="path918" />
  <path
     fill="#FFCC4D"
     d="M4.075 33c-.337 0-.652-.17-.837-.45-.185-.282-.216-.638-.084-.948L9.172 17.56c.157-.368.521-.607.921-.607.401 0 .765.24.922.607l6.018 14.041c.133.311.1.666-.085.948-.185.281-.5.451-.837.451H4.075z"
     id="path920" />
  <path
     fill="#292F33"
     d="M10.09 19.436L8.084 33h4.01z"
     id="path922" />
  <path
     fill="#FFAC33"
     d="M14.127 31.887L14.575 33h-2.481zm-8.075 0L5.604 33h2.48z"
     id="path924" />
  <path
     fill="#FFE8B6"
     d="M12.094 33s1.823-.465 2.714-1.288L10.09 19.436 12.094 33zm-4.01 0s-1.823-.465-2.714-1.288l4.719-12.277L8.084 33z"
     id="path926" />
  <path
     fill="#E1E8ED"
     d="M13.625 5.625c-.018 0-.034.006-.052.006.034-.164.052-.333.052-.507 0-1.381-1.119-2.5-2.5-2.5-.891 0-1.667.469-2.11 1.171-.277-.106-.575-.17-.89-.17-1.275 0-2.315.957-2.469 2.19-.282-.113-.583-.19-.906-.19-1.381 0-2.5 1.119-2.5 2.5s1.119 2.5 2.5 2.5h8.875c1.381 0 2.5-1.119 2.5-2.5s-1.119-2.5-2.5-2.5z"
     id="path928" />
  <g
     id="g1206"
     transform="matrix(-0.15811004,0.01713208,0.01713208,0.15811004,11.520836,22.87677)">
    <path
       fill="#d4ab88"
       d="m 34.956,17.916 c 0,-0.503 -0.12,-0.975 -0.321,-1.404 -1.341,-4.326 -7.619,-4.01 -16.549,-4.221 -1.493,-0.035 -0.639,-1.798 -0.115,-5.668 0.341,-2.517 -1.282,-6.382 -4.01,-6.382 -4.498,0 -0.171,3.548 -4.148,12.322 -2.125,4.688 -6.875,2.062 -6.875,6.771 v 10.719 c 0,1.833 0.18,3.595 2.758,3.885 C 8.195,34.219 7.633,36 11.238,36 h 18.044 c 1.838,0 3.333,-1.496 3.333,-3.334 0,-0.762 -0.267,-1.456 -0.698,-2.018 1.02,-0.571 1.72,-1.649 1.72,-2.899 0,-0.76 -0.266,-1.454 -0.696,-2.015 1.023,-0.57 1.725,-1.649 1.725,-2.901 0,-0.909 -0.368,-1.733 -0.961,-2.336 0.757,-0.611 1.251,-1.535 1.251,-2.581 z"
       id="path1194" />
    <path
       fill="#b68a60"
       d="m 23.02,21.249 h 8.604 c 1.17,0 2.268,-0.626 2.866,-1.633 0.246,-0.415 0.109,-0.952 -0.307,-1.199 -0.415,-0.247 -0.952,-0.108 -1.199,0.307 -0.283,0.479 -0.806,0.775 -1.361,0.775 h -8.81 c -0.873,0 -1.583,-0.71 -1.583,-1.583 0,-0.873 0.71,-1.583 1.583,-1.583 H 28.7 c 0.483,0 0.875,-0.392 0.875,-0.875 0,-0.483 -0.392,-0.875 -0.875,-0.875 h -5.888 c -1.838,0 -3.333,1.495 -3.333,3.333 0,1.025 0.475,1.932 1.205,2.544 -0.615,0.605 -0.998,1.445 -0.998,2.373 0,1.028 0.478,1.938 1.212,2.549 -0.611,0.604 -0.99,1.441 -0.99,2.367 0,1.12 0.559,2.108 1.409,2.713 -0.524,0.589 -0.852,1.356 -0.852,2.204 0,1.838 1.495,3.333 3.333,3.333 h 5.484 c 1.17,0 2.269,-0.625 2.867,-1.632 0.247,-0.415 0.11,-0.952 -0.305,-1.199 -0.416,-0.245 -0.953,-0.11 -1.199,0.305 -0.285,0.479 -0.808,0.776 -1.363,0.776 h -5.484 c -0.873,0 -1.583,-0.71 -1.583,-1.583 0,-0.873 0.71,-1.583 1.583,-1.583 h 6.506 c 1.17,0 2.27,-0.626 2.867,-1.633 0.247,-0.416 0.11,-0.953 -0.305,-1.199 -0.419,-0.251 -0.954,-0.11 -1.199,0.305 -0.289,0.487 -0.799,0.777 -1.363,0.777 h -7.063 c -0.873,0 -1.583,-0.711 -1.583,-1.584 0,-0.873 0.71,-1.583 1.583,-1.583 h 8.091 c 1.17,0 2.269,-0.625 2.867,-1.632 0.247,-0.415 0.11,-0.952 -0.305,-1.199 -0.417,-0.246 -0.953,-0.11 -1.199,0.305 -0.289,0.486 -0.799,0.776 -1.363,0.776 H 23.02 c -0.873,0 -1.583,-0.71 -1.583,-1.583 0,-0.873 0.709,-1.584 1.583,-1.584 z"
       id="path1196" />
  </g>
  <path
     fill="#ffe8b6"
     d="m 12.094,33 c 0,0 1.823,-0.465 2.714,-1.288 L 10.09,19.436 Z M 10.089,19.435 c -6.726,-12.9566667 -3.363,-6.478333 0,0 z"
     id="path1307"
     sodipodi:nodetypes="cccccc" />
</svg>
